<svg xmlns="http://www.w3.org/2000/svg" width="195.8" height="225.2" viewBox="0 0 195.8 225.2"><path d="M96.9 3l94.9 54.8v109.6l-94.9 54.8L2 167.4V57.8L96.9 3z"/><path fill="#fff" d="M41.8 153.1a1.8 1.8 0 0 1 0-3.6h9v-11.3h-9a1.8 1.8 0 0 1-1.8-1.8v-35.5a1.7 1.7 0 0 1 1.8-1.8h11.9c.9-25.6 20-39.6 43.2-39.6s42.3 14 43.2 39.6H152a1.7 1.7 0 0 1 1.8 1.8v35.5a1.7 1.7 0 0 1-1.8 1.8h-9v11.3h9a1.8 1.8 0 0 1 0 3.6zm1.8-50.4v31.9h106.6v-31.9zm10.8 35.5v11.3H66v-11.3zm2.9-39.1h79.2c-.9-23.2-18.5-36-39.6-36s-38.7 12.8-39.6 36zm12.3 39.1v11.3h17.9v-11.3zm21.6 0v11.3h11.5v-11.3zm48.7-12.3H96a1.8 1.8 0 1 1 0-3.6h43.9a1.8 1.8 0 0 1 0 3.6zm-33.6 12.3v11.3h18v-11.3zm21.6 0v11.3h11.5v-11.3z"/></svg>