<svg id="Layer_1" data-name="Layer 1" xmlns="http://www.w3.org/2000/svg" width="195.8" height="225.2" viewBox="0 0 195.8 225.2"><rect x="91.2" y="138.2" width="11.5" height="11.34"/><path d="M96.9,63.1c-21.1,0-38.7,12.8-39.6,36h79.2C135.6,75.9,118,63.1,96.9,63.1Z"/><rect x="106.3" y="138.2" width="18" height="11.34"/><rect x="69.6" y="138.2" width="18" height="11.34"/><rect x="54.4" y="138.2" width="11.5" height="11.34"/><rect x="127.9" y="138.2" width="11.5" height="11.34"/><path d="M96.9,3,2,57.8V167.4l94.9,54.8,94.9-54.8V57.8Zm56.9,133.4a1.7,1.7,0,0,1-1.8,1.8h-9v11.3h9a1.8,1.8,0,0,1,0,3.6H41.8a1.8,1.8,0,0,1,0-3.6h9V138.2h-9a1.8,1.8,0,0,1-1.8-1.8V100.9a1.7,1.7,0,0,1,1.8-1.8H53.7c.9-25.6,20-39.6,43.2-39.6s42.3,14,43.2,39.6H152a1.7,1.7,0,0,1,1.8,1.8Z"/><path d="M43.6,134.6H150.2V102.7H43.6ZM96,122.3h43.9a1.8,1.8,0,0,1,0,3.6H96a1.8,1.8,0,1,1,0-3.6Z"/></svg>