<svg id="Layer_1" data-name="Layer 1" xmlns="http://www.w3.org/2000/svg" width="196" height="225" viewBox="0 0 196 225"><polygon points="71.7 131.7 59.8 131.7 44 150.4 46.5 154 76.9 138 71.7 131.7"/><rect x="49.8" y="118.8" width="98.5" height="9.36"/><path d="M135.8,115.2a45.2,45.2,0,0,0,2.2-13.7,39,39,0,0,0-78,0c0,4.7.4,9.5,2.2,13.7Z"/><polygon points="62.4 149.9 86.8 149.9 79.5 140.9 62.4 149.9"/><polygon points="124.3 131.7 118.9 138 149.5 154 152 150.6 136.2 131.7 124.3 131.7"/><path d="M98,3.4,3.1,58.2V167.8L98,222.6l94.9-54.8V58.2Zm57.6,148.1-4.1,6a2,2,0,0,1-2.4.5l-8.6-4.5H55.3L46.7,158a1.9,1.9,0,0,1-2.3-.5l-4.2-6a2,2,0,0,1,.2-2.1l14.9-17.7H48a1.7,1.7,0,0,1-1.8-1.8V117a1.7,1.7,0,0,1,1.8-1.8H58.4a49.4,49.4,0,0,1-2-13.7,42.6,42.6,0,0,1,85.2,0,45.9,45.9,0,0,1-2,13.7H150a1.7,1.7,0,0,1,1.8,1.8v12.9a1.7,1.7,0,0,1-1.8,1.8h-9.2l14.8,17.7A1.8,1.8,0,0,1,155.6,151.5Z"/><polygon points="109.2 149.9 133.6 149.9 116.5 140.9 109.2 149.9"/><polygon points="76.4 131.7 91.5 149.9 104.5 149.9 119.6 131.7 76.4 131.7"/></svg>