<svg id="Layer_1" data-name="Layer 1" xmlns="http://www.w3.org/2000/svg" width="193.8" height="226.2" viewBox="0 0 193.8 226.2"><rect x="98.7" y="130.5" width="8.1" height="19.98"/><polygon points="95.1 113.4 95.1 77.1 69.2 113.4 95.1 113.4"/><path d="M93.3,73.5c-23,1.4-42.3,18.1-47.9,39.9H64.7Z"/><path d="M98.7,73.3v40.1h49.7A53.6,53.6,0,0,0,98.7,73.3Z"/><rect x="46.7" y="130.5" width="48.4" height="19.98"/><path d="M96.9,4,2,58.8V168.4l94.9,54.8,94.9-54.8V58.8Zm77.6,126.5H150.7v21.8a1.7,1.7,0,0,1-1.8,1.8H44.9a1.7,1.7,0,0,1-1.8-1.8V130.5H19.3a1.8,1.8,0,1,1,0-3.6H32.8V115.2a1.7,1.7,0,0,1,1.8-1.8h7.1a57,57,0,0,1,55-43.7c.2-.2.4-.2.7,0a57,57,0,0,1,54.8,43.7h7a1.7,1.7,0,0,1,1.8,1.8v11.7h13.5a1.8,1.8,0,1,1,0,3.6Z"/><rect x="110.4" y="130.5" width="36.7" height="19.98"/><rect x="36.4" y="117" width="121" height="9.9"/></svg>