<svg xmlns="http://www.w3.org/2000/svg" width="193.8" height="226.2" viewBox="0 0 193.8 226.2"><path d="M96.9 4l94.9 54.8v109.6l-94.9 54.8L2 168.4V58.8L96.9 4z"/><path fill="#fff" d="M44.9 154.1a1.7 1.7 0 0 1-1.8-1.8v-21.8H19.3a1.8 1.8 0 1 1 0-3.6h13.5v-11.7a1.7 1.7 0 0 1 1.8-1.8h7.1a57 57 0 0 1 55-43.7c.2-.2.4-.2.7 0a57 57 0 0 1 54.8 43.7h7a1.7 1.7 0 0 1 1.8 1.8v11.7h13.5a1.8 1.8 0 1 1 0 3.6h-23.8v21.8a1.7 1.7 0 0 1-1.8 1.8zM36.4 117v9.9h121V117zm56.9-43.5c-23 1.4-42.3 18.1-47.9 39.9h19.3zm-46.6 57v20h48.4v-20zm48.4-53.4l-25.9 36.3h25.9zm3.6-3.8v40.1h49.7a53.6 53.6 0 0 0-49.7-40.1zm0 57.2v20h8.1v-20zm11.7 0v20h36.7v-20z"/></svg>